<svg width="531" height="620" viewBox="0 0 531 620" fill="none" xmlns="http://www.w3.org/2000/svg">
<g clip-path="url(#clip0_3053_456)">
<path d="M118.019 330.451C95.0303 324.892 98.0944 316.291 98.0944 284.705C98.0944 253.118 99.7099 184.601 101.325 155C101.325 155 66.7533 165.678 36.1661 176.528C19.4724 182.448 1.16318 184.062 1.16318 184.062C1.16318 184.062 6.48363 337.163 27.5339 389.088C48.5841 441.013 186.41 485.451 186.41 485.451L205.796 334.482C205.796 334.482 151.407 338.524 118.019 330.451Z" fill="#ED7054"/>
<path d="M205.796 334.482C205.796 334.482 151.407 338.524 118.019 330.451C95.0303 324.892 98.0944 316.291 98.0944 284.705C98.0944 253.118 99.7099 184.601 101.325 155" stroke="#9B3423" stroke-width="4" stroke-linecap="round" stroke-linejoin="round"/>
<path d="M1.16318 184.062C1.16318 184.062 6.48363 337.163 27.5339 389.088C48.5841 441.013 186.41 485.451 186.41 485.451" stroke="#9B3423" stroke-width="4" stroke-linecap="round" stroke-linejoin="round"/>
<path d="M328.037 279.861C345.49 263 357.358 250.917 365.404 242.36L344.73 224.427L249.415 254.566V284.705C249.415 284.705 249 286.777 246.356 302.907C261.154 308.434 292.894 313.816 328.037 279.861Z" fill="#ED7054"/>
<path d="M355.501 303.542C351.193 281.476 369.109 245.573 369.109 245.573L365.404 242.36C357.358 250.922 345.49 263.005 328.037 279.861C292.894 313.816 261.149 308.428 246.356 302.907C245.985 305.167 245.57 307.697 245.107 310.538C241.337 333.681 205.796 333.681 205.796 333.681C205.796 333.681 197.718 449.931 266.109 449.931C334.499 449.931 403.966 340.677 403.966 340.677C403.966 340.677 359.809 325.608 355.501 303.542Z" fill="#F9D9CD"/>
<path d="M239.183 108.177C239.183 108.177 220.125 160.667 225.882 182.055L268.446 117.122L239.183 108.177Z" fill="#605242"/>
<path d="M239.183 108.177C239.183 108.177 220.125 160.667 225.882 182.055" stroke="#382D22" stroke-width="4" stroke-linecap="round" stroke-linejoin="round"/>
<path d="M234.337 151.233C234.337 151.233 210.104 218.507 228.413 252.413C246.722 286.319 307.574 299.774 338.807 249.184C370.04 198.594 382.964 157.691 363.04 137.778C343.115 117.865 256.954 80.1909 234.337 151.233Z" fill="#F9D9CD"/>
<path d="M234.746 151.233C234.746 151.233 209.732 218.48 228.634 252.376C247.53 286.271 310.341 299.721 342.576 249.146" stroke="#ED7054" stroke-width="4" stroke-linecap="round" stroke-linejoin="round"/>
<path d="M306.405 136.809C306.405 136.809 315.026 162.05 347.676 169.44C380.326 176.829 405.582 155.893 405.582 133.731C405.582 111.568 398.188 100.486 377.865 89.4049C357.536 78.3234 332.899 89.4049 332.899 89.4049C332.899 89.4049 327.972 72.1665 295.322 67.8556C262.673 63.5446 239.269 70.934 234.956 94.3293C230.642 117.725 249.738 138.041 271.3 142.347C292.862 146.658 306.41 136.809 306.41 136.809H306.405Z" fill="#605242"/>
<path d="M393.735 139.931C393.735 139.931 406.12 132.396 416.89 157.691C427.661 182.986 414.736 209.896 398.581 214.201C382.426 218.507 367.348 252.413 367.348 252.413L353.885 249.184C353.885 249.184 374.348 151.771 393.735 139.931Z" fill="#605242"/>
<path d="M367.348 252.413C367.348 252.413 382.426 218.507 398.581 214.201C414.736 209.896 427.661 182.986 416.89 157.691C412.809 148.1 408.495 143.235 404.709 140.883C405.286 138.537 405.582 136.142 405.582 133.736C405.582 128.666 405.194 124.172 404.354 120.13" stroke="#382D22" stroke-width="4" stroke-linecap="round" stroke-linejoin="round"/>
<path d="M349.577 205.052C349.577 205.052 374.887 189.983 378.656 205.052C382.426 220.121 351.273 250.583 342.076 241.273C332.883 231.962 349.577 205.052 349.577 205.052Z" fill="#F9D9CD"/>
<path d="M359.27 157.691C359.27 157.691 354.424 195.903 339.345 210.972L349.308 214.47C349.308 214.47 364.101 196.242 372.555 198.707C385.119 202.366 385.119 157.696 385.119 157.696H359.27V157.691Z" fill="#605242"/>
<path d="M309.477 187.579C310.839 183.49 309.77 179.452 307.089 178.56C304.408 177.668 301.131 180.26 299.769 184.35C298.407 188.439 299.476 192.477 302.157 193.369C304.838 194.261 308.115 191.668 309.477 187.579Z" fill="black"/>
<path d="M255.627 172.504C256.989 168.415 255.92 164.377 253.239 163.485C250.559 162.593 247.281 165.185 245.919 169.275C244.557 173.364 245.627 177.402 248.307 178.294C250.988 179.185 254.265 176.593 255.627 172.504Z" fill="black"/>
<path d="M263.955 178.142C263.955 178.142 241.876 201.823 239.183 211.51C236.491 221.198 268.263 222.812 268.263 222.812C268.263 222.812 256.415 217.431 256.415 208.281C256.415 199.132 263.955 178.142 263.955 178.142Z" fill="#EAAC98"/>
<path d="M361.963 208.281C361.963 208.281 370.04 201.285 372.733 207.205C375.425 213.125 357.983 229.755 357.983 229.755C357.983 229.755 356.039 227.118 358.193 221.736C360.347 216.354 363.04 219.583 365.194 217.431C367.348 215.278 374.348 205.052 361.963 208.281Z" fill="#EAAC98"/>
<path d="M242.414 229.809C242.414 229.809 245.645 236.806 266.108 240.573C286.572 244.34 293.572 240.573 293.572 240.573C293.572 240.573 279.571 249.722 260.723 243.264C241.876 236.806 242.414 229.809 242.414 229.809Z" fill="#ED7054"/>
<path d="M242.409 379.292C242.409 379.292 270.955 402.634 319.959 382.15L281.187 455.851L242.414 379.292H242.409Z" fill="#545454"/>
<path d="M433.186 345.333C406.19 329.52 373.271 323.654 373.271 323.654C373.185 323.702 373.104 323.762 373.018 323.81C372.48 323.708 372.194 323.654 372.194 323.654C317.32 356.85 284.504 431.664 280.971 440.006C246.437 404.658 226.738 327.104 226.738 327.104C226.388 327.136 226.038 327.174 225.688 327.212C225.672 327.147 225.661 327.104 225.661 327.104C209.786 328.627 196.286 332.405 185.521 340.623C185.521 340.623 125.558 435.938 178.87 618.924H465.356C465.356 618.924 465.819 613.278 466.503 603.677C469.993 554.733 439.745 349.084 433.186 345.338V345.333Z" fill="#ED7054"/>
<path d="M377.859 89.4049C357.531 78.3235 332.894 89.4049 332.894 89.4049C332.894 89.4049 327.967 72.1665 295.317 67.8556C279.9 65.8212 266.539 66.3917 256.281 70.0299" stroke="#382D22" stroke-width="4" stroke-linecap="round" stroke-linejoin="round"/>
<path d="M234.951 94.3347C230.637 117.73 249.733 138.047 271.294 142.352C292.856 146.663 306.405 136.814 306.405 136.814C306.405 136.814 315.026 162.056 347.676 169.445C359.916 172.217 371.123 171.006 380.342 167.239" stroke="#382D22" stroke-width="4" stroke-linecap="round" stroke-linejoin="round"/>
<path d="M359.712 269.286C359.712 269.286 347.418 301.378 362.227 315.915" stroke="#ED7054" stroke-width="4" stroke-linecap="round" stroke-linejoin="round"/>
<path d="M234.337 326.146C234.337 326.146 242.759 324.703 246.184 302.465C248.338 288.472 249.415 272.865 249.415 272.865" stroke="#ED7054" stroke-width="4" stroke-linecap="round" stroke-linejoin="round"/>
<path d="M389.104 96.5682C389.104 96.5682 397.073 102.295 399.981 108.468" stroke="#382D22" stroke-width="4" stroke-linecap="round" stroke-linejoin="round"/>
<path d="M257.514 386.87C257.514 386.87 275.473 393.635 297.713 388.953" stroke="#0A0A0A" stroke-width="4" stroke-linecap="round" stroke-linejoin="round"/>
<path d="M368.963 316.997C368.963 316.997 394.273 320.974 403.966 330.559C403.966 330.559 385.119 347.135 367.886 369.74L345.269 364.358L362.501 378.889C362.501 378.889 305.958 416.563 281.725 440.781C281.725 440.781 296.803 369.201 368.963 316.997Z" fill="#FCA89F"/>
<path d="M231.106 320.764C231.106 320.764 248.338 394.497 281.725 440.781C281.725 440.781 228.952 403.161 220.874 383.194L232.183 369.74L216.184 377.113C216.184 377.113 195.026 351.979 195.026 330.451C195.026 330.451 206.334 314.844 231.106 320.764Z" fill="#FCA89F"/>
<path d="M368.963 316.997C368.963 316.997 394.273 320.974 403.966 330.559C403.966 330.559 385.119 347.135 367.886 369.74L345.269 364.358L362.501 378.889C362.501 378.889 305.958 416.563 281.725 440.781C281.725 440.781 296.803 369.201 368.963 316.997Z" stroke="#9B3423" stroke-width="4" stroke-linecap="round" stroke-linejoin="round"/>
<path d="M231.106 320.764C231.106 320.764 248.338 394.497 281.725 440.781C281.725 440.781 228.952 403.161 220.874 383.194L232.183 369.74L216.184 377.113C216.184 377.113 195.026 351.979 195.026 330.451C195.026 330.451 206.334 314.844 231.106 320.764Z" stroke="#9B3423" stroke-width="4" stroke-linecap="round" stroke-linejoin="round"/>
<path d="M237.234 86.7785C237.234 86.7785 243.174 75.4711 249.792 72.99" stroke="#382D22" stroke-width="4" stroke-linecap="round" stroke-linejoin="round"/>
<path d="M387.273 618.924H522.772L408.64 436.373L387.273 618.924Z" fill="#E2614B"/>
<path d="M411.139 334.757C411.139 334.757 522.976 371.892 528.361 480.608C533.132 576.934 529.977 618.924 529.977 618.924H437.892C437.892 618.924 426.045 546.267 415.275 462.847C404.349 378.232 411.139 334.757 411.139 334.757Z" fill="#ED7054"/>
<path d="M410.062 334.757C410.062 334.757 521.899 371.892 527.284 480.608C532.055 576.934 528.9 618.924 528.9 618.924" stroke="#9B3423" stroke-width="4" stroke-linecap="round" stroke-linejoin="round"/>
<path d="M54.9758 181.355C82.6034 173.056 103.334 160.789 101.28 153.958C99.2249 147.126 75.1627 148.316 47.5351 156.616C19.9075 164.915 -0.823375 177.182 1.23133 184.013C3.28604 190.845 27.3483 189.655 54.9758 181.355Z" fill="#9B3423"/>
<path d="M109.188 115.346C113.846 102.779 111.051 74.8575 111.051 66.946C111.051 59.0345 114.777 48.7981 105.461 47.867C96.1504 46.9359 91.9554 59.0345 91.9554 67.4142C91.9554 67.4142 90.0922 55.7785 90.0922 46.4731C90.0922 37.1677 84.5025 15.2901 77.0549 7.84687C69.6074 0.403645 63.5492 7.38403 63.5492 12.9651C63.5492 18.5462 67.7388 30.1819 67.7388 30.1819C67.7388 30.1819 58.8911 15.7529 56.0963 10.6347C53.3014 5.51649 44.9222 -3.32604 40.2642 3.65434C35.6061 10.6347 41.6589 23.6644 46.317 28.3198L49.1118 37.1623L42.5905 28.788C42.5905 28.788 34.2113 15.2901 30.0164 16.6894C25.8268 18.0833 20.7056 24.6009 27.69 35.3056C34.6745 46.0102 36.5377 51.1285 38.864 59.971C38.864 59.971 34.206 49.2663 32.3427 47.4042C30.4795 45.542 23.9636 38.0988 21.6318 35.7684C19.3055 33.4434 12.7842 36.6995 15.579 46.4731C18.3739 56.2467 22.1003 55.3156 24.8898 65.5521C27.6793 75.7885 30.9426 90.2175 32.3427 105.109C33.7375 120.001 34.206 130.238 40.7219 136.755L35.326 186.108C41.3089 184.945 47.7548 183.363 54.4053 181.366C73.1454 175.737 88.7082 168.283 96.145 161.937C95.7573 154.769 95.3803 147.331 95.3803 145.312C95.3803 141.125 104.513 127.913 109.171 115.346H109.188Z" fill="#F9D9CD"/>
<path d="M96.1612 161.937C95.7734 154.769 95.3965 147.331 95.3965 145.312C95.3965 141.125 104.53 127.913 109.188 115.346C113.846 102.779 111.051 74.8575 111.051 66.946C111.051 59.0345 114.777 48.7981 105.461 47.867C96.1504 46.9359 91.9554 59.0345 91.9554 67.4142C91.9554 67.4142 90.0922 55.7785 90.0922 46.4731C90.0922 37.1677 84.5025 15.2901 77.0549 7.84687C69.6074 0.403645 63.5492 7.38403 63.5492 12.9651C63.5492 18.5462 67.7388 30.1819 67.7388 30.1819C67.7388 30.1819 58.8911 15.7529 56.0963 10.6347C53.3014 5.51649 44.9222 -3.32604 40.2642 3.65434C35.6061 10.6347 41.6589 23.6644 46.317 28.3198L49.1118 37.1623L42.5905 28.788C42.5905 28.788 34.2113 15.2901 30.0164 16.6894C25.8268 18.0833 20.7056 24.6009 27.69 35.3056C34.6745 46.0102 36.5377 51.1285 38.864 59.971C38.864 59.971 34.206 49.2663 32.3427 47.4042C30.4795 45.542 23.9636 38.0988 21.6318 35.7684C19.3055 33.4434 12.7842 36.6995 15.579 46.4731C18.3739 56.2467 22.1003 55.3156 24.8898 65.5521C27.6793 75.7885 30.9426 90.2175 32.3427 105.109C33.7375 120.001 34.206 130.238 40.7219 136.755L35.326 186.108" stroke="#ED7054" stroke-width="4" stroke-linecap="round" stroke-linejoin="round"/>
<path d="M156.786 485.634C156.786 485.634 157.869 561.875 178.87 618.924" stroke="#9B3423" stroke-width="4" stroke-linecap="round" stroke-linejoin="round"/>
<path d="M418.247 485.451C418.247 485.451 433.04 592.552 437.887 618.924" stroke="#9B3423" stroke-width="4" stroke-linecap="round" stroke-linejoin="round"/>
<path d="M416.373 471.292L408.813 436.476" stroke="#9B3423" stroke-width="4" stroke-linecap="round" stroke-linejoin="round"/>
<path d="M98.6706 151.303C100.049 151.986 100.938 152.874 101.266 153.967C103.318 160.796 82.5908 173.062 54.96 181.361C27.3292 189.66 3.26875 190.849 1.21704 184.014C-0.258472 179.1 10.0432 171.383 26.2145 164.348" stroke="#382D22" stroke-width="4" stroke-linecap="round" stroke-linejoin="round"/>
<path d="M70.092 100.642C70.092 100.642 78.7081 85.0347 90.0168 85.0347L92.1708 66.7361" stroke="#ED7054" stroke-width="4" stroke-linecap="round" stroke-linejoin="round"/>
<path d="M67.938 30.1389C67.938 30.1389 75.4771 43.5938 73.8616 54.8959" stroke="#ED7054" stroke-width="4" stroke-linecap="round" stroke-linejoin="round"/>
<path d="M49.0903 37.1354C49.0903 37.1354 57.1679 48.9757 57.1679 61.3541" stroke="#ED7054" stroke-width="4" stroke-linecap="round" stroke-linejoin="round"/>
<path d="M38.8586 59.7396C38.8586 59.7396 41.0127 66.198 41.0127 71.0417" stroke="#ED7054" stroke-width="4" stroke-linecap="round" stroke-linejoin="round"/>
<path d="M31.465 97.354C31.465 97.354 44.7822 81.8056 67.938 79.6528" stroke="#ED7054" stroke-width="4" stroke-linecap="round" stroke-linejoin="round"/>
<path d="M164.196 400.96C164.196 400.96 156.775 440.243 156.786 462.847" stroke="#9B3423" stroke-width="4" stroke-linecap="round" stroke-linejoin="round"/>
</g>
<defs>
<clipPath id="clip0_3053_456">
<rect width="531" height="620" fill="white"/>
</clipPath>
</defs>
</svg>
