<svg width="448" height="557" viewBox="0 0 448 557" fill="none" xmlns="http://www.w3.org/2000/svg">
<path d="M245.694 216.241C263.218 199.295 275.135 187.152 283.212 178.552L262.456 160.529L166.755 190.819V221.109C166.755 221.109 166.339 223.192 163.684 239.403C178.542 244.958 210.41 250.367 245.694 216.241Z" fill="#ED7054"/>
<path d="M273.269 240.041C268.944 217.864 286.932 181.781 286.932 181.781L283.212 178.552C275.135 187.158 263.218 199.301 245.694 216.242C210.41 250.367 178.537 244.952 163.684 239.403C163.311 241.674 162.895 244.217 162.43 247.073C158.645 270.331 122.96 270.331 122.96 270.331C122.96 270.331 114.85 387.165 183.516 387.165C252.183 387.165 321.93 277.363 321.93 277.363C321.93 277.363 277.595 262.218 273.269 240.041Z" fill="#F9D9CD"/>
<path d="M156.482 43.6954C156.482 43.6954 137.348 96.449 143.128 117.944L185.863 52.6851L156.482 43.6954Z" fill="#605242"/>
<path d="M156.482 43.6954C156.482 43.6954 137.348 96.449 143.128 117.944" stroke="#382D22" stroke-width="4" stroke-linecap="round" stroke-linejoin="round"/>
<path d="M151.616 86.9669C151.616 86.9669 127.285 154.579 145.669 188.655C164.052 222.732 225.149 236.254 256.508 185.41C287.867 134.566 300.844 93.4577 280.839 73.4445C260.833 53.4314 174.325 15.5687 151.616 86.9669Z" fill="#F9D9CD"/>
<path d="M152.027 86.9672C152.027 86.9672 126.912 154.552 145.89 188.618C164.863 222.683 227.928 236.2 260.293 185.372" stroke="#ED7054" stroke-width="4" stroke-linecap="round" stroke-linejoin="round"/>
<path d="M223.975 72.4711C223.975 72.4711 232.632 97.8391 265.413 105.266C298.194 112.692 323.552 91.6513 323.552 69.3772C323.552 47.1031 316.129 35.966 295.724 24.829C275.313 13.6919 250.577 24.829 250.577 24.829C250.577 24.829 245.63 7.50405 212.848 3.17147C180.067 -1.1611 156.569 6.2654 152.238 29.7782C147.907 53.2909 167.079 73.7097 188.728 78.0369C210.377 82.3695 223.981 72.4711 223.981 72.4711H223.975Z" fill="#605242"/>
<path d="M311.658 75.6084C311.658 75.6084 324.093 68.0359 334.907 93.458C345.72 118.88 332.744 145.925 316.524 150.252C300.303 154.579 285.164 188.656 285.164 188.656L271.647 185.41C271.647 185.41 292.193 87.5081 311.658 75.6084Z" fill="#605242"/>
<path d="M285.164 188.655C285.164 188.655 300.303 154.579 316.524 150.251C332.744 145.924 345.72 118.88 334.907 93.4574C330.808 83.8186 326.478 78.9289 322.677 76.5652C323.255 74.2069 323.553 71.7999 323.553 69.3821C323.553 64.2869 323.163 59.7704 322.32 55.7083" stroke="#382D22" stroke-width="4" stroke-linecap="round" stroke-linejoin="round"/>
<path d="M267.322 141.056C267.322 141.056 292.734 125.911 296.518 141.056C300.303 156.201 269.025 186.816 259.79 177.459C250.561 168.101 267.322 141.056 267.322 141.056Z" fill="#F9D9CD"/>
<path d="M277.054 93.4579C277.054 93.4579 272.188 131.862 257.049 147.007L267.051 150.522C267.051 150.522 281.904 132.202 290.393 134.68C303.007 138.358 303.007 93.4633 303.007 93.4633H277.054V93.4579Z" fill="#605242"/>
<path d="M227.062 123.485C228.429 119.375 227.356 115.317 224.664 114.421C221.973 113.525 218.682 116.13 217.315 120.24C215.947 124.35 217.021 128.408 219.712 129.304C222.404 130.2 225.694 127.595 227.062 123.485Z" fill="black"/>
<path d="M172.989 108.339C174.357 104.229 173.283 100.171 170.592 99.2747C167.9 98.3784 164.61 100.984 163.242 105.093C161.875 109.203 162.948 113.262 165.64 114.158C168.331 115.054 171.622 112.449 172.989 108.339Z" fill="black"/>
<path d="M181.354 114.012C181.354 114.012 159.186 137.811 156.482 147.548C153.779 157.284 185.679 158.906 185.679 158.906C185.679 158.906 173.784 153.497 173.784 144.302C173.784 135.107 181.354 114.012 181.354 114.012Z" fill="#EAAC98"/>
<path d="M279.757 144.302C279.757 144.302 287.868 137.27 290.571 143.22C293.274 149.17 275.762 165.884 275.762 165.884C275.762 165.884 273.81 163.233 275.973 157.824C278.135 152.415 280.839 155.661 283.002 153.497C285.164 151.334 292.193 141.057 279.757 144.302Z" fill="#EAAC98"/>
<path d="M159.726 165.938C159.726 165.938 162.97 172.97 183.516 176.756C204.062 180.542 211.091 176.756 211.091 176.756C211.091 176.756 197.033 185.951 178.11 179.46C159.186 172.97 159.726 165.938 159.726 165.938Z" fill="#ED7054"/>
<path d="M159.721 316.172C159.721 316.172 188.382 339.631 237.584 319.044L198.655 393.114L159.726 316.172H159.721Z" fill="#545454"/>
<path d="M384.72 541.677C388.223 492.487 397.496 340.02 380.324 309.27C359.778 272.489 291.112 260.248 291.112 260.248C232.718 295.607 199.196 377.964 199.196 377.964C164.052 342.805 143.987 263.715 143.987 263.715C100.133 267.924 74.2989 289.257 74.2989 373.636C74.2989 438.511 87.086 512.025 92.9956 542.537C115.596 539.448 155.147 532.817 171 522.545C171 522.545 271.939 561.549 384.72 541.677Z" fill="#E2614B"/>
<path d="M171 522.545C155.141 532.817 115.596 539.453 92.9956 542.536C94.7744 551.71 95.9261 557 95.9261 557H383.568C383.568 557 384.033 551.326 384.72 541.676C271.939 561.549 171 522.545 171 522.545Z" fill="#ED7054"/>
<path d="M433.851 387.165C394.382 294.131 342.471 277.309 342.471 277.309L357.615 429.896C318.686 407.178 159.726 412.587 159.726 412.587C118.635 425.027 130.529 489.935 130.529 489.935C130.529 489.935 199.196 529.42 323.552 532.666C447.909 535.911 473.321 480.199 433.851 387.165Z" fill="#ED7054"/>
<path d="M112.146 271.413C112.146 271.413 55.9156 290.344 33.2071 368.233C13.4722 435.926 2.38829 474.249 47.8054 509.407C93.2226 544.565 194.87 491.557 194.87 491.557L297.059 429.895L120.257 433.141C120.257 433.141 123.257 360.525 120.797 337.402C119.116 321.57 112.146 271.413 112.146 271.413Z" fill="#ED7054"/>
<path d="M146.209 400.146C146.209 400.146 226.23 387.705 280.298 400.146C280.298 400.146 278.676 353.088 305.71 334.156C326.688 319.466 345.396 305.424 377.994 302.655C357.194 282.436 341.389 277.308 341.389 277.308C316.432 264.965 290.03 260.254 290.03 260.254C231.637 295.612 198.115 377.969 198.115 377.969C162.97 342.811 142.906 263.721 142.906 263.721C126.966 265.252 113.412 269.049 102.603 277.308C102.603 277.308 54.8343 296.834 34.8291 364.446C32.0608 373.799 29.4169 382.669 27.0379 391.096C50.4818 384.757 88.7241 382.383 146.209 400.146Z" fill="#ED7054"/>
<path d="M292.193 415.832C292.193 415.832 320.849 416.373 352.209 427.191C352.209 427.191 353.544 380.685 380.865 377.969C408.185 375.254 397.085 357.404 385.487 361.299C385.487 361.299 403.865 360.78 394.901 353.299C385.936 345.818 374.09 345.359 368.294 349.724C368.294 349.724 387.142 343.395 381.573 338.814C376.004 334.227 360.524 332.566 355.696 336.207C355.696 336.207 359.313 332.572 365.839 330.381C372.365 328.191 358.551 313.462 341.644 323.171C324.737 332.88 292.512 335.044 292.193 415.837V415.832Z" fill="#F9D9CD"/>
<path d="M120.257 377.969C120.257 377.969 122.96 410.964 120.257 433.141" stroke="#9B3423" stroke-width="4" stroke-linecap="round" stroke-linejoin="round"/>
<path d="M138.64 428.273C138.64 428.273 125.663 450.99 129.448 483.444C129.448 483.444 54.8344 469.922 40.236 493.18C25.6376 516.439 18.0681 483.985 26.719 475.331C26.719 475.331 18.0681 491.558 15.3647 480.199C12.6613 468.84 17.5274 458.022 24.0156 454.777C24.0156 454.777 9.95789 468.84 8.33585 461.808C6.71381 454.777 12.1206 440.173 17.5274 437.468C17.5274 437.468 12.6613 439.091 7.79517 443.959C2.92905 448.827 -4.0998 429.896 12.1206 419.078C28.341 408.26 66.1887 392.574 138.64 428.273Z" fill="#F9D9CD"/>
<path d="M342.471 277.309C342.471 277.309 394.382 294.131 433.851 387.165C473.321 480.199 447.909 535.911 323.552 532.666C199.196 529.42 130.529 489.935 130.529 489.935C130.529 489.935 118.635 425.027 159.726 412.587C159.726 412.587 318.686 407.178 357.615 429.896" stroke="#9B3423" stroke-width="4" stroke-linecap="round" stroke-linejoin="round"/>
<path d="M89.308 522.546C89.308 522.546 144.652 517.846 165.971 505.243" stroke="#9B3423" stroke-width="4" stroke-linecap="round" stroke-linejoin="round"/>
<path d="M104.036 274.658C104.036 274.658 42.9394 298.458 20.7715 410.423" stroke="#9B3423" stroke-width="4" stroke-linecap="round" stroke-linejoin="round"/>
<path d="M295.718 24.8287C275.308 13.6917 250.571 24.8287 250.571 24.8287C250.571 24.8287 245.624 7.50383 212.843 3.17125C197.363 1.12667 183.949 1.70002 173.649 5.35647" stroke="#382D22" stroke-width="4" stroke-linecap="round" stroke-linejoin="round"/>
<path d="M152.232 29.778C147.902 53.2907 167.074 73.7095 188.723 78.0367C210.372 82.3693 223.975 72.4709 223.975 72.4709C223.975 72.4709 232.632 97.8389 265.413 105.265C277.703 108.051 288.954 106.834 298.211 103.048" stroke="#382D22" stroke-width="4" stroke-linecap="round" stroke-linejoin="round"/>
<path d="M277.497 205.607C277.497 205.607 265.154 237.861 280.022 252.471" stroke="#ED7054" stroke-width="4" stroke-linecap="round" stroke-linejoin="round"/>
<path d="M151.616 262.758C151.616 262.758 160.072 261.309 163.511 238.959C165.674 224.896 166.755 209.21 166.755 209.21" stroke="#ED7054" stroke-width="4" stroke-linecap="round" stroke-linejoin="round"/>
<path d="M307.008 32.0229C307.008 32.0229 315.01 37.7781 317.929 43.9822" stroke="#382D22" stroke-width="4" stroke-linecap="round" stroke-linejoin="round"/>
<path d="M352.208 427.191C352.208 427.191 354.896 396.392 365.72 385.828C376.539 375.265 392.04 379.197 395.917 372.631C399.794 366.069 397.674 364.144 391.976 360.509C386.277 356.874 351.133 360.661 345.185 393.114" stroke="#9B3423" stroke-width="4" stroke-linecap="round" stroke-linejoin="round"/>
<path d="M392.219 360.661C392.219 360.661 398.929 361.256 397.199 356.09C395.463 350.925 383.309 344.369 372.625 347.647C361.941 350.925 334.366 355.793 327.337 389.869" stroke="#9B3423" stroke-width="4" stroke-linecap="round" stroke-linejoin="round"/>
<path d="M375.49 346.765C375.49 346.765 381.389 344.736 382.476 341.339C383.563 337.943 372.208 330.37 355.447 336.32C338.686 342.27 319.222 350.383 309.489 383.378" stroke="#9B3423" stroke-width="4" stroke-linecap="round" stroke-linejoin="round"/>
<path d="M355.453 336.32C355.453 336.32 359.237 333.075 365.726 330.37C372.214 327.666 362.855 318.422 350.5 320.066C338.145 321.71 321.801 331.517 312.674 340.68C303.547 349.842 290.62 375.789 292.215 413.116" stroke="#9B3423" stroke-width="4" stroke-linecap="round" stroke-linejoin="round"/>
<path d="M129.448 483.443C129.448 483.443 89.4377 475.871 56.4562 482.903C40.0844 486.391 39.2464 502.045 30.5036 501.293C21.7608 500.541 21.8689 484.758 24.5561 478.034C27.8002 469.921 48.2 450.378 84.4256 465.545" stroke="#9B3423" stroke-width="4" stroke-linecap="round" stroke-linejoin="round"/>
<path d="M24.5561 478.035C24.5561 478.035 17.5273 489.935 15.3645 480.199C14.6833 477.121 12.2989 463.588 21.312 456.399C30.3252 449.211 52.1362 432.832 90.5948 448.08" stroke="#9B3423" stroke-width="4" stroke-linecap="round" stroke-linejoin="round"/>
<path d="M20.2308 457.481C20.2308 457.481 13.9535 465.302 9.95787 463.971C8.33583 463.431 2.56677 448.242 17.5274 437.468C32.488 426.693 54.6667 416.351 93.4498 428.581" stroke="#9B3423" stroke-width="4" stroke-linecap="round" stroke-linejoin="round"/>
<path d="M17.5274 437.468C17.5274 437.468 13.9967 440.038 7.79511 443.959C1.59351 447.881 -1.06664 434.082 7.17333 424.433C15.4079 414.778 34.1695 408.801 48.3461 406.637C62.5282 404.474 100.251 407.178 138.64 428.273" stroke="#9B3423" stroke-width="4" stroke-linecap="round" stroke-linejoin="round"/>
<path d="M174.887 323.782C174.887 323.782 192.919 330.582 215.249 325.876" stroke="#0A0A0A" stroke-width="4" stroke-linecap="round" stroke-linejoin="round"/>
<path d="M286.786 253.563C286.786 253.563 312.198 257.56 321.93 267.194C321.93 267.194 303.007 283.853 285.705 306.571L262.996 301.162L280.298 315.766C280.298 315.766 223.527 353.629 199.196 377.969C199.196 377.969 214.335 306.03 286.786 253.563Z" fill="#FCA89F"/>
<path d="M148.372 257.35C148.372 257.35 165.674 331.452 199.196 377.969C199.196 377.969 146.209 340.161 138.099 320.094L149.453 306.571L133.39 313.981C133.39 313.981 112.146 288.722 112.146 267.086C112.146 267.086 123.501 251.4 148.372 257.35Z" fill="#FCA89F"/>
<path d="M286.786 253.563C286.786 253.563 312.198 257.56 321.93 267.194C321.93 267.194 303.007 283.853 285.705 306.571L262.996 301.162L280.298 315.766C280.298 315.766 223.527 353.629 199.196 377.969C199.196 377.969 214.335 306.03 286.786 253.563Z" stroke="#9B3423" stroke-width="4" stroke-linecap="round" stroke-linejoin="round"/>
<path d="M148.372 257.35C148.372 257.35 165.674 331.452 199.196 377.969C199.196 377.969 146.209 340.161 138.099 320.094L149.453 306.571L133.39 313.981C133.39 313.981 112.146 288.722 112.146 267.086C112.146 267.086 123.501 251.4 148.372 257.35Z" stroke="#9B3423" stroke-width="4" stroke-linecap="round" stroke-linejoin="round"/>
<path d="M154.525 22.1889C154.525 22.1889 160.489 10.8247 167.134 8.33118" stroke="#382D22" stroke-width="4" stroke-linecap="round" stroke-linejoin="round"/>
</svg>
