<svg width="463" height="557" viewBox="0 0 463 557" fill="none" xmlns="http://www.w3.org/2000/svg">
<path d="M286.788 239.619C282.474 217.488 300.413 181.481 300.413 181.481L296.704 178.258C288.648 186.846 276.764 198.964 259.288 215.869C224.1 249.923 192.314 244.52 177.502 238.982C177.13 241.249 176.715 243.786 176.251 246.636C172.477 269.846 136.89 269.846 136.89 269.846C136.89 269.846 128.802 386.435 197.28 386.435C265.759 386.435 335.316 276.862 335.316 276.862C335.316 276.862 291.101 261.749 286.788 239.619Z" fill="#F9D9CD"/>
<path d="M364.573 281.531C337.543 265.673 304.581 259.79 304.581 259.79C304.495 259.838 304.414 259.898 304.328 259.946C303.789 259.844 303.503 259.79 303.503 259.79C248.558 293.082 215.699 368.115 212.162 376.481C177.583 341.03 157.859 263.25 157.859 263.25C157.509 263.282 157.158 263.32 156.808 263.358C156.792 263.293 156.781 263.25 156.781 263.25C140.885 264.777 127.367 268.566 116.589 276.809C116.589 276.809 56.5486 372.401 109.93 555.92H396.785C396.785 555.92 397.249 550.258 397.934 540.629C401.428 491.543 371.141 285.294 364.573 281.537V281.531Z" fill="#ED7054"/>
<path d="M390.029 432.881L378.571 410.222C378.571 410.222 266.298 417.201 208.604 397.23L106.959 393.84L90.9497 463.993C93.5594 486.334 97.9593 510.634 104.705 536.856C126.65 532.954 176.273 523.384 183.795 515.438C193.501 505.183 205.363 490.069 205.363 490.069C205.363 490.069 238.254 502.484 259.283 518.677C276.602 532.014 366.331 543.517 397.454 547.16C397.594 545.255 397.756 543.069 397.928 540.624C399.292 521.489 395.518 478.475 390.023 432.881H390.029Z" fill="#E2614B"/>
<path d="M259.288 215.869C276.764 198.958 288.648 186.841 296.704 178.258L276.004 160.274L180.565 190.5V220.727C180.565 220.727 180.15 222.805 177.502 238.982C192.32 244.525 224.1 249.923 259.288 215.869Z" fill="#ED7054"/>
<path d="M170.32 43.6846C170.32 43.6846 151.238 96.3277 157.002 117.778L199.62 52.6554L170.32 43.6846Z" fill="#605242"/>
<path d="M170.32 43.6846C170.32 43.6846 151.238 96.3277 157.002 117.778" stroke="#382D22" stroke-width="4" stroke-linecap="round" stroke-linejoin="round"/>
<path d="M165.467 86.8657C165.467 86.8657 141.203 154.336 159.536 188.341C177.869 222.346 238.799 235.841 270.073 185.103C301.346 134.365 314.287 93.3428 294.337 73.3716C274.386 53.4003 188.114 15.6168 165.467 86.8657Z" fill="#F9D9CD"/>
<path d="M165.883 86.8656C165.883 86.8656 140.837 154.309 159.763 188.303C178.683 222.298 241.576 235.786 273.852 185.065" stroke="#ED7054" stroke-width="4" stroke-linecap="round" stroke-linejoin="round"/>
<path d="M237.634 72.4C237.634 72.4 246.267 97.7149 278.959 105.126C311.65 112.537 336.939 91.54 336.939 69.3125C336.939 47.0851 329.536 35.9713 309.186 24.8576C288.831 13.7438 264.163 24.8576 264.163 24.8576C264.163 24.8576 259.229 7.56895 226.537 3.24544C193.846 -1.07807 170.412 6.33289 166.093 29.7964C161.774 53.26 180.894 73.6361 202.484 77.9542C224.073 82.2777 237.64 72.4 237.64 72.4H237.634Z" fill="#605242"/>
<path d="M325.071 75.5307C325.071 75.5307 337.473 67.974 348.257 93.3429C359.041 118.712 346.1 145.7 329.924 150.018C313.748 154.336 298.65 188.341 298.65 188.341L285.17 185.103C285.17 185.103 305.66 87.4055 325.071 75.5307Z" fill="#605242"/>
<path d="M298.65 188.341C298.65 188.341 313.748 154.336 329.924 150.018C346.1 145.7 359.041 118.712 348.257 93.3429C344.17 83.7243 339.851 78.8448 336.06 76.486C336.637 74.1327 336.934 71.7307 336.934 69.318C336.934 64.2334 336.545 59.7264 335.704 55.6727" stroke="#382D22" stroke-width="4" stroke-linecap="round" stroke-linejoin="round"/>
<path d="M280.857 140.842C280.857 140.842 306.199 125.729 309.973 140.842C313.748 155.955 282.555 186.506 273.345 177.168C264.141 167.83 280.857 140.842 280.857 140.842Z" fill="#F9D9CD"/>
<path d="M290.562 93.3428C290.562 93.3428 285.709 131.666 270.612 146.779L280.587 150.288C280.587 150.288 295.399 132.006 303.864 134.478C316.444 138.149 316.444 93.3482 316.444 93.3482H290.562V93.3428Z" fill="#605242"/>
<path d="M240.71 123.316C242.074 119.214 241.003 115.165 238.319 114.27C235.635 113.376 232.353 115.976 230.99 120.077C229.626 124.178 230.697 128.228 233.381 129.122C236.065 130.017 239.347 127.417 240.71 123.316Z" fill="black"/>
<path d="M186.785 108.196C188.149 104.095 187.079 100.045 184.394 99.151C181.71 98.2567 178.429 100.856 177.065 104.958C175.701 109.059 176.772 113.109 179.456 114.003C182.14 114.897 185.422 112.298 186.785 108.196Z" fill="black"/>
<path d="M195.123 113.854C195.123 113.854 173.016 137.603 170.32 147.319C167.624 157.035 199.437 158.654 199.437 158.654C199.437 158.654 187.575 153.257 187.575 144.081C187.575 134.905 195.123 113.854 195.123 113.854Z" fill="#EAAC98"/>
<path d="M293.258 144.081C293.258 144.081 301.346 137.064 304.042 143.001C306.738 148.938 289.274 165.617 289.274 165.617C289.274 165.617 287.327 162.972 289.484 157.575C291.641 152.177 294.337 155.416 296.493 153.257C298.65 151.098 305.66 140.842 293.258 144.081Z" fill="#EAAC98"/>
<path d="M173.555 165.671C173.555 165.671 176.791 172.688 197.28 176.466C217.77 180.245 224.78 176.466 224.78 176.466C224.78 176.466 210.76 185.642 191.888 179.165C173.016 172.688 173.555 165.671 173.555 165.671Z" fill="#ED7054"/>
<path d="M173.555 315.591C173.555 315.591 202.139 339 251.206 318.457L212.383 392.372L173.561 315.591H173.555Z" fill="#545454"/>
<path d="M309.181 24.8576C288.826 13.7439 264.157 24.8576 264.157 24.8576C264.157 24.8576 259.224 7.56897 226.532 3.24546C211.095 1.20516 197.717 1.7773 187.445 5.42611" stroke="#382D22" stroke-width="4" stroke-linecap="round" stroke-linejoin="round"/>
<path d="M166.087 29.7964C161.768 53.2599 180.888 73.636 202.478 77.9541C224.068 82.2776 237.634 72.4 237.634 72.4C237.634 72.4 246.267 97.7149 278.959 105.126C291.215 107.906 302.435 106.691 311.667 102.913" stroke="#382D22" stroke-width="4" stroke-linecap="round" stroke-linejoin="round"/>
<path d="M291.01 205.257C291.01 205.257 278.7 237.444 293.528 252.023" stroke="#ED7054" stroke-width="4" stroke-linecap="round" stroke-linejoin="round"/>
<path d="M165.473 262.289C165.473 262.289 173.906 260.842 177.335 238.539C179.492 224.505 180.57 208.852 180.57 208.852" stroke="#ED7054" stroke-width="4" stroke-linecap="round" stroke-linejoin="round"/>
<path d="M320.434 32.0364C320.434 32.0364 328.414 37.7795 331.326 43.9706" stroke="#382D22" stroke-width="4" stroke-linecap="round" stroke-linejoin="round"/>
<path d="M188.68 323.185C188.68 323.185 206.662 329.97 228.931 325.274" stroke="#0A0A0A" stroke-width="4" stroke-linecap="round" stroke-linejoin="round"/>
<path d="M300.268 253.113C300.268 253.113 325.61 257.102 335.316 266.715C335.316 266.715 316.444 283.34 299.189 306.01L276.543 300.612L293.797 315.186C293.797 315.186 237.181 352.969 212.917 377.259C212.917 377.259 228.015 305.47 300.268 253.113Z" fill="#FCA89F"/>
<path d="M162.232 256.891C162.232 256.891 179.487 330.839 212.917 377.259C212.917 377.259 160.075 339.529 151.987 319.504L163.311 306.01L147.291 313.405C147.291 313.405 126.106 288.198 126.106 266.607C126.106 266.607 137.429 250.954 162.232 256.891Z" fill="#FCA89F"/>
<path d="M300.268 253.113C300.268 253.113 325.61 257.102 335.316 266.715C335.316 266.715 316.444 283.34 299.189 306.01L276.543 300.612L293.797 315.186C293.797 315.186 237.181 352.969 212.917 377.259C212.917 377.259 228.015 305.47 300.268 253.113Z" stroke="#9B3423" stroke-width="4" stroke-linecap="round" stroke-linejoin="round"/>
<path d="M162.232 256.891C162.232 256.891 179.487 330.839 212.917 377.259C212.917 377.259 160.075 339.529 151.987 319.504L163.311 306.01L147.291 313.405C147.291 313.405 126.106 288.198 126.106 266.607C126.106 266.607 137.429 250.954 162.232 256.891Z" stroke="#9B3423" stroke-width="4" stroke-linecap="round" stroke-linejoin="round"/>
<path d="M168.374 22.2235C168.374 22.2235 174.321 10.8831 180.948 8.39478" stroke="#382D22" stroke-width="4" stroke-linecap="round" stroke-linejoin="round"/>
<path d="M352.22 275.092C352.22 275.092 431.294 301.692 462.568 384.276C493.841 466.86 481.44 532.171 415.118 532.171C348.796 532.171 286.249 518.677 286.249 518.677C286.249 518.677 269.533 458.223 286.249 431.775L390.255 434.787C390.255 434.787 325.982 310.031 352.22 275.092Z" fill="#ED7054"/>
<path d="M352.22 275.092C352.22 275.092 431.294 301.692 462.568 384.276C493.841 466.86 481.44 532.171 415.118 532.171C348.796 532.171 286.249 518.677 286.249 518.677" stroke="#9B3423" stroke-width="4" stroke-linecap="round" stroke-linejoin="round"/>
<path d="M123.41 272.544C123.41 272.544 65.1758 275.243 20.4221 372.941C-24.3317 470.638 15.5693 537.029 109.93 518.677C164.977 507.973 174.095 500.865 174.095 500.865C174.095 500.865 180.026 438.792 160.615 419.36L102.381 413.423C102.381 413.423 131.498 294.675 123.41 272.544Z" fill="#ED7054"/>
<path d="M123.41 272.544C123.41 272.544 65.1758 275.243 20.4221 372.941C-24.3317 470.638 15.5693 537.029 109.93 518.677C164.977 507.973 174.095 500.865 174.095 500.865C174.095 500.865 183.261 477.115 160.615 419.36L102.381 413.423C102.381 413.423 109.261 385.361 115.402 353.984" stroke="#9B3423" stroke-width="4" stroke-linecap="round" stroke-linejoin="round"/>
<path d="M368.423 386.435C379.396 413.698 390.261 434.787 390.261 434.787L286.254 431.775" stroke="#9B3423" stroke-width="4" stroke-linecap="round" stroke-linejoin="round"/>
<path d="M286.249 518.677C292.502 518.677 297.572 499.223 297.572 475.226C297.572 451.229 292.502 431.775 286.249 431.775C279.995 431.775 274.925 451.229 274.925 475.226C274.925 499.223 279.995 518.677 286.249 518.677Z" fill="#9B3423"/>
<path d="M293.258 442.03C292.719 440.006 276.457 436.627 272.014 432.18C267.571 427.732 264.61 412.413 264.114 405.494C263.899 402.509 263.37 400.771 257.132 392.372C253.595 387.606 256.517 362.334 252.818 357.827C247.928 351.874 231.654 354.988 229.093 352.429C221.183 344.517 194.946 346.697 182.388 349.903C169.83 353.11 170.32 397.09 170.32 397.09L208.97 461.068C212.95 467.653 219.021 472.716 226.219 475.431C245.62 482.755 284.609 497.065 295.96 498.16C295.96 498.16 300.273 468.473 293.264 442.025L293.258 442.03Z" fill="#F9D9CD"/>
<path d="M160.615 419.36C160.615 419.36 175.712 455.222 175.712 481.433C175.712 481.433 194.697 473.434 200.515 454.985C206.333 436.535 228.29 424.488 235.564 422.059C242.837 419.63 260.2 412.505 266.018 420.272C271.836 428.04 276.203 412.019 267.474 403.281C258.744 394.542 261.17 394.542 259.229 386.289C257.288 378.036 253.896 379.979 249.044 377.55C244.196 375.121 249.529 372.698 245.647 365.902C241.77 359.106 240.303 362.842 234.485 359.446C228.667 356.051 232.868 351.89 231.789 347.572C230.425 342.104 224.936 340.015 216.692 340.015C208.447 340.015 185.035 360.078 173.879 373.669C162.723 387.26 160.615 419.36 160.615 419.36Z" fill="#F9D9CD"/>
<path d="M267.091 421.454C272.332 426.064 275.659 411.469 267.474 403.281C258.744 394.542 261.17 394.542 259.229 386.289C257.288 378.036 253.896 379.979 249.044 377.55C244.196 375.121 249.529 372.698 245.647 365.902C241.77 359.106 240.303 362.842 234.485 359.446C228.667 356.051 232.868 351.89 231.789 347.572C230.425 342.104 224.936 340.015 216.692 340.015C208.447 340.015 185.035 360.078 173.879 373.669C162.723 387.26 160.615 419.36 160.615 419.36C160.615 419.36 175.712 455.222 175.712 481.433C175.712 481.433 196.741 473.876 202.133 452.286" stroke="#9B3423" stroke-width="4" stroke-linecap="round" stroke-linejoin="round"/>
<path d="M205.368 445.269C209.143 431.775 228.29 424.488 235.564 422.059C241.425 420.105 253.826 415.101 261.472 417.288" stroke="#ED7054" stroke-width="4" stroke-linecap="round" stroke-linejoin="round"/>
<path d="M281.584 435.618C283.008 433.146 284.588 431.77 286.249 431.77C292.503 431.77 297.572 451.223 297.572 475.221C297.572 499.218 292.503 518.672 286.249 518.672C282.097 518.672 278.468 510.095 276.494 497.308" stroke="#382D22" stroke-width="4" stroke-linecap="round" stroke-linejoin="round"/>
<path d="M102.133 526.476L109.93 555.92" stroke="#9B3423" stroke-width="4" stroke-linecap="round" stroke-linejoin="round"/>
<path d="M396.785 555.92L398.219 536.073" stroke="#9B3423" stroke-width="4" stroke-linecap="round" stroke-linejoin="round"/>
<path d="M202.133 347.572C202.133 347.572 179.929 346.103 176.742 355.204C173.555 364.304 171.339 377.323 171.339 377.323" stroke="#9B3423" stroke-width="4" stroke-linecap="round" stroke-linejoin="round"/>
<path d="M255.514 397.23C255.514 397.23 230.172 399.389 220.466 403.707C210.76 408.025 204.29 408.025 199.976 420.44" stroke="#ED7054" stroke-width="4" stroke-linecap="round" stroke-linejoin="round"/>
<path d="M241.495 376.179C241.495 376.179 213.559 381.577 202.457 386.435C191.354 391.292 188.653 401.008 188.653 401.008" stroke="#ED7054" stroke-width="4" stroke-linecap="round" stroke-linejoin="round"/>
<path d="M225.319 357.827C225.319 357.827 190.271 371.321 185.418 376.179C180.565 381.037 178.947 388.594 178.947 388.594" stroke="#ED7054" stroke-width="4" stroke-linecap="round" stroke-linejoin="round"/>
<path d="M254.991 379.315C254.991 379.315 255.514 369.702 253.896 361.066C252.279 352.429 231.789 352.429 231.789 352.429" stroke="#9B3423" stroke-width="4" stroke-linecap="round" stroke-linejoin="round"/>
<path d="M364.821 377.259C364.821 377.259 357.612 360.029 357.52 356.769" stroke="#9B3423" stroke-width="4" stroke-linecap="round" stroke-linejoin="round"/>
</svg>
